# xmcd
#
# Track frame offsets: 
#        150
#        23738
#        43730
#        70225
#        91630
#        118453
#        140085
#        167310
#        189405
#        206425
#
# Disc length: 2986 seconds
#
# Revision: 2
# Processed by: cddbd v1.5.2PL0 Copyright (c) Steve Scherf et al.
# Submitted via: ExactAudioCopy v1.0b3
#
DISCID=850ba80a
DTITLE=Various Artist - Niem Mong Uoc Cua Anh
DYEAR=1990
DGENRE=
TTITLE0=Kieu Nga - Cam on tinh yeu (Sonia)
TTITLE1=Ngoc Lan - Hanh phuc troi xa (Adieu Tristesse)
TTITLE2=Minh Xuan, Minh Phuc - Gri Gri
TTITLE3=Billy Shane, Duy Quang - Niem mong uoc cua anh (J'ai envie)
TTITLE4=Ngoc Huong - Chut vuong van trong tim
TTITLE5=Julie - Nhu may khoi (Femme aujourd' hui)
TTITLE6=Joe Marcel, Kieu Nga - Quen di co gai
TTITLE7=Kieu Nga, Trong Nghia - Lang du (L'aventura)
TTITLE8=Tuan Anh - Donna
TTITLE9=Nhu Mai - Tinh doi ta
EXTD=
EXTT0=
EXTT1=
EXTT2=
EXTT3=
EXTT4=
EXTT5=
EXTT6=
EXTT7=
EXTT8=
EXTT9=
PLAYORDER=
